<svg width="30" height="30" viewBox="0 0 30 30" fill="none" xmlns="http://www.w3.org/2000/svg">
<circle cx="15" cy="15" r="15" fill="white"/>
<path d="M7.91801 9.85358C7.99615 9.56074 8.15482 9.24871 8.2722 8.97551C9.67681 5.59989 12.7459 4.39014 15.224 4.39014C18.5413 4.39014 22.1951 6.61459 22.6829 11.1997V12.1365C22.6829 12.1756 22.6694 12.5267 22.6502 12.7024C22.3768 14.8876 20.6525 17.2099 19.3648 19.3951C17.9794 21.7362 16.5418 24.0393 15.1175 26.3414C14.2393 24.8391 13.3643 23.317 12.506 21.8536C12.2721 21.4241 12.0006 20.9949 11.7665 20.585C11.6104 20.3121 11.3123 20.0391 11.176 19.7852C9.79067 17.2487 7.56076 14.6927 7.56076 12.1755V11.1414C7.56071 10.8685 7.89897 9.91243 7.91801 9.85358ZM15.1632 14.5561C16.1384 14.5561 17.2057 14.0685 17.7326 12.722C17.8111 12.5076 17.8047 12.078 17.8047 12.0387V11.4338C17.8047 9.71717 16.3472 8.93652 15.0791 8.93652C13.518 8.93652 12.3107 10.1855 12.3107 11.7466C12.3107 13.3076 13.6021 14.5561 15.1632 14.5561Z" fill="#015789"/>
</svg>
