<svg width="30" height="30" viewBox="0 0 30 30" fill="none" xmlns="http://www.w3.org/2000/svg">
<path d="M21.0628 0H8.93716C4.00919 0 0 4.00919 0 8.93716V21.0628C0 25.9908 4.00919 30 8.93716 30H21.0628C25.9908 30 30 25.9908 30 21.0628V8.93716C29.9999 4.00919 25.9908 0 21.0628 0ZM26.982 21.0628C26.982 24.3319 24.3319 26.982 21.0628 26.982H8.93716C5.66813 26.982 3.018 24.3319 3.018 21.0628V8.93716C3.018 5.66807 5.66813 3.018 8.93716 3.018H21.0628C24.3319 3.018 26.982 5.66807 26.982 8.93716V21.0628Z" fill="white"/>
<path d="M15 7.24121C10.7217 7.24121 7.24097 10.7219 7.24097 15.0002C7.24097 19.2785 10.7217 22.7593 15 22.7593C19.2784 22.7593 22.7591 19.2786 22.7591 15.0002C22.7591 10.7219 19.2784 7.24121 15 7.24121ZM15 19.7413C12.3816 19.7413 10.259 17.6187 10.259 15.0003C10.259 12.3818 12.3816 10.2592 15 10.2592C17.6185 10.2592 19.7411 12.3818 19.7411 15.0003C19.7411 17.6187 17.6184 19.7413 15 19.7413Z" fill="white"/>
<path d="M22.774 9.15841C23.8009 9.15841 24.6333 8.326 24.6333 7.29917C24.6333 6.27235 23.8009 5.43994 22.774 5.43994C21.7472 5.43994 20.9148 6.27235 20.9148 7.29917C20.9148 8.326 21.7472 9.15841 22.774 9.15841Z" fill="white"/>
</svg>
