<svg width="35" height="61" viewBox="0 0 35 61" fill="none" xmlns="http://www.w3.org/2000/svg">
<path d="M16.1245 35.796C16.1245 35.796 16.1345 35.8407 16.1494 35.9153C16.3138 36.7104 17.2505 41.1678 17.6641 41.635C17.5345 42.5394 17.2057 44.2687 16.8818 44.6513C16.558 45.0389 16.4284 47.0316 16.8769 48.4479C17.3303 49.8641 17.674 52.1848 17.3303 53.3426C16.9865 54.5054 15.9053 55.2757 16.3836 55.8323C16.8569 56.3888 18.0627 57.4224 18.0228 58.1529C17.978 58.8834 18.0677 60.8165 18.8001 60.8612C19.5325 60.9059 19.5773 61.2488 19.7467 59.6984C19.9211 58.1529 20.0507 57.3777 20.0058 55.9167C19.961 54.4558 19.4179 52.7364 19.4179 52.7364C19.4179 52.7364 20.6087 54.9726 20.7382 55.7875C20.8678 56.6025 20.6087 57.9343 20.7382 58.5356C20.8678 59.1368 20.6087 60.8512 21.5554 60.9158C22.502 60.9804 23.0202 61.3283 23.1497 59.9071C23.2793 58.4908 23.1049 56.3838 22.5469 54.8781C21.9888 53.3724 21.2564 52.4283 21.381 51.1412C21.5105 49.8542 21.381 46.4999 20.7781 45.4663C20.1752 43.7469 21.6401 39.9205 21.6401 39.9205L22.8907 37.6446C22.8907 37.6446 24.2259 38.718 24.5299 38.6782C24.8338 38.6335 25.5662 38.4645 25.5662 38.4645L26.0395 38.549L26.3833 38.5043L26.9862 38.718L27.7186 38.2459C27.7186 38.2459 26.8567 38.4198 28.2368 38.4596C29.6169 38.5043 29.8312 38.4596 29.8312 38.4596L30.4341 38.2459C30.4341 38.2459 30.175 37.7291 30.9522 37.7291C31.7295 37.7291 31.7295 37.0831 31.7295 37.0831C31.7295 37.0831 30.8675 36.4818 30.9124 36.0942C30.9572 35.7066 30.9971 35.4929 30.5686 34.8916C30.1401 34.2903 25.9598 29.8229 24.7092 29.003C23.4586 28.188 24.2808 26.5531 24.8388 25.6934C25.3968 24.8337 25.8303 22.1702 25.8303 22.1702C25.8303 22.1702 26.3036 21.395 26.2189 20.7539C26.1342 20.1079 25.4417 17.832 25.4417 17.832C25.4417 17.832 24.9683 16.8431 25.4417 15.8989C25.915 14.9548 27.7236 11.0439 28.1122 10.4824C28.5009 9.92087 28.7998 9.57799 29.4924 7.30205C30.1849 5.02611 30.5287 3.69433 30.5287 3.69433C30.5287 3.69433 31.5003 3.20237 32.0783 2.81477C32.6562 2.42716 33.4584 2.40728 33.4584 2.40728C33.4584 2.40728 34.5794 2.45201 34.6243 2.16876C34.6691 1.89048 34.3652 1.93023 34.3652 1.93023C34.3652 1.93023 34.8834 1.86563 34.9481 1.6271C35.0129 1.38858 35.0976 1.19974 34.6442 1.1103C34.1908 1.02582 33.6976 0.787291 33.6976 0.787291L34.709 0.359931C34.709 0.359931 34.7738 -0.0922755 34.151 0.0170491C33.5281 0.126374 31.9338 0.404655 31.3309 1.02582C30.728 1.64698 29.8212 2.29299 29.8212 2.29299L27.8631 6.13923C27.8631 6.13923 26.8068 7.90333 26.6972 8.80278C26.5876 9.70222 25.4466 11.3818 25.4466 11.3818C25.4466 11.3818 23.8971 13.9808 23.3789 14.4529C22.8608 14.925 22.5369 15.5908 22.5369 15.5908L22.0636 15.6356C22.0636 15.6356 21.4408 14.1746 21.655 13.3149C21.8692 12.4552 22.9455 11.5607 22.7561 11.3222C22.5618 11.0837 22.0237 10.5122 22.0237 10.5122H21.7248L21.8344 10.1395L21.5105 10.0799C21.5105 10.0799 21.6849 9.15063 21.2963 9.25498C20.9076 9.35934 20.2201 9.31461 20.0706 9.12081C19.9211 8.92701 18.7353 8.1518 18.0876 8.36548C17.4399 8.57916 15.5017 9.41897 15.6312 10.7507C14.854 11.1582 14.1465 11.8042 14.4056 12.5745C14.6646 13.3497 15.1828 15.1337 16.8818 14.0802C17.5495 14.6367 18.4563 14.6815 18.4563 14.6815C18.4563 14.6815 18.7353 16.3362 17.8086 16.3561C16.8818 16.376 15.9551 16.4853 15.3971 16.8083C14.839 17.1313 12.5322 17.8419 11.0026 17.7127C9.47295 17.5835 8.93485 17.4991 7.32054 17.6034C5.70623 17.7078 3.91754 17.7127 3.91754 17.7127C3.91754 17.7127 2.25839 18.4432 1.67544 19.1936C1.0925 19.944 0.813481 20.3117 0.813481 20.3117L0.0511692 21.4646C0.0511692 21.4646 -0.143146 21.872 0.225554 21.8522C0.594255 21.8323 0.634115 21.5292 0.634115 21.5292L0.614184 22.4087C0.614184 22.4087 0.634115 22.7516 0.957973 22.4733C1.08752 22.518 1.58078 22.8411 1.58078 22.364C1.58078 21.8919 1.32169 20.9478 1.40639 20.7539C1.49109 20.5601 2.00927 20.1527 2.18365 20.1527C2.35804 20.1527 2.57228 20.3266 2.44274 20.5601C2.31319 20.7937 2.24842 20.9875 2.29326 21.3751C2.33811 21.7627 2.70183 21.7627 2.70183 21.7627L2.98084 21.0521C2.98084 21.0521 2.96091 20.749 3.28477 20.5601C3.60863 20.3713 4.16666 19.4868 4.1268 19.0793C5.37739 19.2284 8.47647 19.7899 8.47647 19.7899C8.47647 19.7899 9.92137 20.1129 11.0175 19.8992C12.1136 19.6855 15.8455 19.3625 16.3587 19.4719C16.8719 19.5812 17.7587 20.9776 17.7587 20.9776C17.7587 20.9776 18.6207 21.6236 18.6207 22.1155C18.6207 22.6075 18.9446 24.4163 18.9446 24.4163C18.9446 24.4163 18.6855 26.2003 17.9331 26.3096C17.1808 26.4189 13.429 25.9866 11.8346 26.0711C10.2402 26.1556 10.325 26.1357 10.325 26.1357L10.2153 26.5034L10.0459 26.5482L9.16404 26.6972V26.9358L8.92489 26.9159L8.86011 27.3234L8.80531 27.537L7.77394 27.5569L7.49493 28.1781L6.56819 28.4564L6.69774 28.7346L6.52335 28.8837L6.56819 29.0576L6.69774 29.2962L6.67781 29.6192L6.50342 29.803L6.67781 30.136H6.96679V30.3944V30.8019L7.22089 31.2938C7.22089 31.2938 7.71415 31.4876 7.8437 31.4876C7.97324 31.4876 8.50138 31.3584 8.80033 31.274C9.10425 31.1895 9.64734 30.9311 9.64734 30.9311L9.58755 31.2988C9.58755 31.2988 9.61246 31.4727 9.86657 31.4727C10.1207 31.4727 10.2353 31.6467 10.2353 31.6467L10.1057 31.9697L10.7933 32.1635C10.7933 32.1635 10.5791 32.8095 10.7734 32.9138C10.9677 33.0182 11.3314 33.0629 11.3314 33.0629L11.3762 33.4704C11.3762 33.4704 11.2915 33.7288 11.5506 33.7288C11.8097 33.7288 12.4574 33.8779 12.4774 34.0518C12.4973 34.2257 12.5421 34.4394 12.5421 34.4394L13.5984 34.9314C13.5984 34.9314 14.3956 35.3587 14.4604 35.4233C14.5251 35.4879 15.3672 35.4432 15.3672 35.4432L15.7558 35.2941L16.1245 35.796Z" fill="#027DC5"/>
</svg>
